HIERARCHY
ROOT hip
{
  OFFSET 0 0 0
  CHANNELS 6 Xposition Yposition Zposition Zrotation Yrotation Xrotation
  JOINT abdomen
  {
    OFFSET 0 20.6881 -0.73152
    CHANNELS 3 Zrotation Xrotation Yrotation
    JOINT chest
    {
      OFFSET 0 11.7043 -0.48768
      CHANNELS 3 Zrotation Xrotation Yrotation
      JOINT neck
      {
        OFFSET 0 22.1894 -2.19456
        CHANNELS 3 Zrotation Xrotation Yrotation
        JOINT head
        {
          OFFSET -0.24384 7.07133 1.2192
          CHANNELS 3 Zrotation Xrotation Yrotation
          JOINT leftEye
          {
            OFFSET 4.14528 8.04674 8.04672
            CHANNELS 3 Zrotation Xrotation Yrotation
            End Site
            {
              OFFSET 1 0 0
            }
          }
          JOINT rightEye
          {
            OFFSET -3.6576 8.04674 8.04672
            CHANNELS 3 Zrotation Xrotation Yrotation
            End Site
            {
              OFFSET 1 0 0
            }
          }
        }
      }
      JOINT rCollar
      {
        OFFSET -2.68224 19.2634 -4.8768
        CHANNELS 3 Zrotation Xrotation Yrotation
        JOINT rShldr
        {
          OFFSET -8.77824 -1.95073 1.46304
          CHANNELS 3 Zrotation Xrotation Yrotation
          JOINT rForeArm
          {
            OFFSET -28.1742 -1.7115 0.48768
            CHANNELS 3 Zrotation Xrotation Yrotation
            JOINT rHand
            {
              OFFSET -22.5879 0.773209 7.07136
              CHANNELS 3 Zrotation Xrotation Yrotation
              JOINT rThumb1
              {
                OFFSET -1.2192 -0.487915 3.41376
                CHANNELS 3 Zrotation Xrotation Yrotation
                JOINT rThumb2
                {
                  OFFSET -3.37035 -0.52449 3.41376
                  CHANNELS 3 Zrotation Xrotation Yrotation
                  End Site
                  {
                    OFFSET -1.78271 -1.18214 1.43049
                  }
                }
              }
              JOINT rIndex1
              {
                OFFSET -7.75947 0.938293 5.60832
                CHANNELS 3 Zrotation Xrotation Yrotation
                JOINT rIndex2
                {
                  OFFSET -2.54057 -0.884171 1.56538
                  CHANNELS 3 Zrotation Xrotation Yrotation
                  End Site
                  {
                    OFFSET -1.62519 -0.234802 1.16502
                  }
                }
              }
              JOINT rMid1
              {
                OFFSET -8.24714 1.18213 3.41376
                CHANNELS 3 Zrotation Xrotation Yrotation
                JOINT rMid2
                {
                  OFFSET -3.10165 -0.590103 1.0647
                  CHANNELS 3 Zrotation Xrotation Yrotation
                  End Site
                  {
                    OFFSET -2.48547 -0.328903 0.83742
                  }
                }
              }
              JOINT rRing1
              {
                OFFSET -8.82822 0.546677 1.51678
                CHANNELS 3 Zrotation Xrotation Yrotation
                JOINT rRing2
                {
                  OFFSET -2.60934 -0.819778 -0.0198488
                  CHANNELS 3 Zrotation Xrotation Yrotation
                  End Site
                  {
                    OFFSET -2.33842 -0.294052 0.168128
                  }
                }
              }
              JOINT rPinky1
              {
                OFFSET -8.27202 -0.0477905 -0.4584
                CHANNELS 3 Zrotation Xrotation Yrotation
                JOINT rPinky2
                {
                  OFFSET -1.82734 -0.647385 -0.700984
                  CHANNELS 3 Zrotation Xrotation Yrotation
                  End Site
                  {
                    OFFSET -1.69225 -0.51767 -0.607171
                  }
                }
              }
            }
          }
        }
      }
      JOINT lCollar
      {
        OFFSET 2.68224 19.2634 -4.8768
        CHANNELS 3 Zrotation Xrotation Yrotation
        JOINT lShldr
        {
          OFFSET 8.77824 -1.95073 1.46304
          CHANNELS 3 Zrotation Xrotation Yrotation
          JOINT lForeArm
          {
            OFFSET 28.1742 -1.7115 0.48768
            CHANNELS 3 Zrotation Xrotation Yrotation
            JOINT lHand
            {
              OFFSET 22.5879 0.773209 7.07136
              CHANNELS 3 Zrotation Xrotation Yrotation
              JOINT lThumb1
              {
                OFFSET 1.2192 -0.487915 3.41376
                CHANNELS 3 Zrotation Xrotation Yrotation
                JOINT lThumb2
                {
                  OFFSET 3.37035 -0.52449 3.41376
                  CHANNELS 3 Zrotation Xrotation Yrotation
                  End Site
                  {
                    OFFSET 1.78271 -1.18214 1.43049
                  }
                }
              }
              JOINT lIndex1
              {
                OFFSET 7.75947 0.938293 5.60832
                CHANNELS 3 Zrotation Xrotation Yrotation
                JOINT lIndex2
                {
                  OFFSET 2.54057 -0.884171 1.56538
                  CHANNELS 3 Zrotation Xrotation Yrotation
                  End Site
                  {
                    OFFSET 1.62519 -0.234802 1.16502
                  }
                }
              }
              JOINT lMid1
              {
                OFFSET 8.24714 1.18213 3.41376
                CHANNELS 3 Zrotation Xrotation Yrotation
                JOINT lMid2
                {
                  OFFSET 3.10165 -0.590103 1.0647
                  CHANNELS 3 Zrotation Xrotation Yrotation
                  End Site
                  {
                    OFFSET 2.48547 -0.328903 0.83742
                  }
                }
              }
              JOINT lRing1
              {
                OFFSET 8.82822 0.546677 1.51678
                CHANNELS 3 Zrotation Xrotation Yrotation
                JOINT lRing2
                {
                  OFFSET 2.60934 -0.819778 -0.0198488
                  CHANNELS 3 Zrotation Xrotation Yrotation
                  End Site
                  {
                    OFFSET 2.33842 -0.294052 0.168128
                  }
                }
              }
              JOINT lPinky1
              {
                OFFSET 8.27202 -0.0477905 -0.4584
                CHANNELS 3 Zrotation Xrotation Yrotation
                JOINT lPinky2
                {
                  OFFSET 1.82734 -0.647385 -0.700984
                  CHANNELS 3 Zrotation Xrotation Yrotation
                  End Site
                  {
                    OFFSET 1.69225 -0.51767 -0.607171
                  }
                }
              }
            }
          }
        }
      }
    }
  }
  JOINT rButtock
  {
    OFFSET -8.77824 4.35084 1.2192
    CHANNELS 3 Zrotation Xrotation Yrotation
    JOINT rThigh
    {
      OFFSET 0 -1.70687 -2.19456
      CHANNELS 3 Zrotation Xrotation Yrotation
      JOINT rShin
      {
        OFFSET 0 -36.8199 0.73152
        CHANNELS 3 Zrotation Xrotation Yrotation
        JOINT rFoot
        {
          OFFSET 0.73152 -45.1104 -5.12064
          CHANNELS 3 Zrotation Xrotation Yrotation
          End Site
          {
            OFFSET -1.1221 -3.69964 12.103
          }
        }
      }
    }
  }
  JOINT lButtock
  {
    OFFSET 8.77824 4.35084 1.2192
    CHANNELS 3 Zrotation Xrotation Yrotation
    JOINT lThigh
    {
      OFFSET 0 -1.70687 -2.19456
      CHANNELS 3 Zrotation Xrotation Yrotation
      JOINT lShin
      {
        OFFSET 0 -36.8199 0.73152
        CHANNELS 3 Zrotation Xrotation Yrotation
        JOINT lFoot
        {
          OFFSET -0.73152 -45.1104 -5.12064
          CHANNELS 3 Zrotation Xrotation Yrotation
          End Site
          {
            OFFSET 1.1221 -3.69964 12.103
          }
        }
      }
    }
  }
}
MOTION
Frames:	4
Frame Time:	0.00833333
23.7562 81.4056 78.5065 -172.471 54.3037 -168.353 1.94048 23.1201 4.85775 -0.0192735 -5.23726 1.73396 6.75648 11.6383 -1.45002 -7.11669 -29.3773 -5.3054 -0.0 0.0 0.0 -0.0 0.0 0.0 1.27205e-13 -3.67363e-13 -6.01075e-13 77.9516 26.4955 -12.7512 -20.0762 -13.1079 38.8652 -0.0183756 -3.86704 -0.544312 1.25234e-09 -3.53586e-09 -1.61975e-09 2.18007e-09 -6.11771e-09 -2.80188e-09 1.25235e-09 -3.53586e-09 -1.61975e-09 7.73091 5.47488 0.417314 1.25234e-09 -3.53586e-09 -1.61975e-09 2.90554 0.965183 0.102902 1.25235e-09 -3.53586e-09 -1.61974e-09 10.2786 0.731801 0.0259123 1.25234e-09 -3.53586e-09 -1.61973e-09 2.22167 -0.733487 -0.20892 1.27247e-13 -3.67345e-13 -6.01324e-13 -83.6244 22.9487 31.3487 17.6877 -10.3547 -33.3231 0.0198898 4.0229 -0.566322 1.18538e-09 -4.64953e-09 -3.33488e-09 2.0432e-09 -8.05985e-09 -5.78383e-09 1.18538e-09 -4.64953e-09 -3.33488e-09 -7.73091 5.47488 -0.417314 1.18538e-09 -4.64953e-09 -3.33488e-09 -2.90554 0.965183 -0.102902 1.18537e-09 -4.64953e-09 -3.33488e-09 -10.2786 0.731801 -0.0259123 1.18539e-09 -4.64953e-09 -3.33489e-09 -2.22167 -0.733487 0.20892 -2.03217e-16 0.0 -3.88251e-19 2.60876 -7.29242 10.4994 -0.0552947 20.2487 0.475176 -3.75842 -16.9606 -8.52506 2.03217e-16 0.0 3.88251e-19 8.22236 -35.3807 -4.63201 0.539091 47.7169 -0.842208 -0.565607 -19.8338 -2.40955
24.2576 81.4594 78.0019 -172.423 54.445 -168.282 1.53522 22.869 5.24758 -0.0902777 -5.13417 1.81011 6.8474 11.5615 -1.52242 -6.8445 -29.1068 -5.3771 -0.0 0.0 0.0 -0.0 0.0 0.0 1.97026e-13 -3.81378e-13 -8.04101e-13 78.2344 26.785 -12.9235 -20.2806 -13.3686 39.366 -0.0260902 -4.5745 -0.644278 9.24826e-10 -4.23631e-09 -2.1311e-09 1.61799e-09 -7.3307e-09 -3.69058e-09 9.24827e-10 -4.23631e-09 -2.13111e-09 7.73091 5.47488 0.417314 9.24826e-10 -4.23631e-09 -2.1311e-09 2.90554 0.965183 0.102902 9.2483e-10 -4.23631e-09 -2.1311e-09 10.2786 0.731801 0.0259123 9.2482e-10 -4.23631e-09 -2.13109e-09 2.22167 -0.733487 -0.20892 1.9706e-13 -3.81359e-13 -8.04355e-13 -83.5411 22.3939 32.3008 17.6039 -10.2661 -33.1398 0.0190036 3.92935 -0.553113 2.95869e-10 -6.76159e-09 -4.49519e-09 5.03484e-10 -1.17134e-08 -7.78837e-09 2.95863e-10 -6.76158e-09 -4.49519e-09 -7.73091 5.47488 -0.417314 2.9587e-10 -6.76158e-09 -4.49519e-09 -2.90554 0.965183 -0.102902 2.95859e-10 -6.76158e-09 -4.49519e-09 -10.2786 0.731801 -0.0259123 2.95874e-10 -6.76158e-09 -4.4952e-09 -2.22167 -0.733487 0.20892 -2.03217e-16 0.0 -3.88251e-19 2.45546 -6.19893 10.7962 -0.0472852 19.1381 0.461279 -3.83893 -16.9385 -8.76855 2.03217e-16 0.0 3.88251e-19 8.24317 -35.1537 -4.54304 0.503714 46.5529 -0.807655 -0.404216 -20.2227 -2.04029
24.7682 81.4893 77.4795 -172.394 54.5978 -168.266 1.10037 22.6234 5.62804 -0.166042 -5.02779 1.88301 6.95232 11.4892 -1.58222 -6.54537 -28.819 -5.41644 -0.0 0.0 0.0 -0.0 0.0 0.0 2.74901e-13 -3.60406e-13 -1.0024e-12 78.5449 27.1029 -13.1138 -20.4754 -13.6221 39.8448 -0.0336712 -5.22422 -0.736245 2.15679e-10 -4.69298e-09 -2.55433e-09 3.96101e-10 -8.12193e-09 -4.42815e-09 2.1568e-10 -4.69298e-09 -2.55434e-09 7.73091 5.47488 0.417314 2.15681e-10 -4.69298e-09 -2.55433e-09 2.90554 0.965183 0.102902 2.15684e-10 -4.69298e-09 -2.55433e-09 10.2786 0.731801 0.0259123 2.15673e-10 -4.69298e-09 -2.55432e-09 2.22167 -0.733487 -0.20892 2.74918e-13 -3.60387e-13 -1.00265e-12 -83.4202 21.8709 33.2242 17.5548 -10.215 -33.0313 0.0183547 3.86193 -0.543592 -1.1193e-09 -9.03574e-09 -5.67951e-09 -1.94484e-09 -1.56451e-08 -9.83145e-09 -1.11931e-09 -9.03574e-09 -5.67951e-09 -7.73091 5.47488 -0.417314 -1.1193e-09 -9.03574e-09 -5.67951e-09 -2.90554 0.965183 -0.102902 -1.11931e-09 -9.03574e-09 -5.67951e-09 -10.2786 0.731801 -0.0259123 -1.11929e-09 -9.03574e-09 -5.67953e-09 -2.22167 -0.733487 0.20892 -2.03217e-16 0.0 -3.88251e-19 2.27619 -5.09378 11.1104 -0.0398798 18.0735 0.448242 -3.92901 -16.923 -9.03757 2.03217e-16 0.0 3.88251e-19 8.25033 -34.8782 -4.37655 0.473117 45.4797 -0.7775 -0.261567 -20.5245 -1.71996
25.278 81.4945 76.9283 -172.452 54.7576 -168.356 0.651162 22.3945 5.99022 -0.238838 -4.92384 1.95137 7.05689 11.4264 -1.63365 -6.22327 -28.533 -5.4324 -0.0 0.0 0.0 -0.0 0.0 0.0 3.28627e-13 -3.03554e-13 -1.10817e-12 78.8613 27.461 -13.3041 -20.6519 -13.8552 40.2838 -0.0412895 -5.80565 -0.818726 -5.05275e-10 -4.67722e-09 -2.709e-09 -8.48529e-10 -8.0954e-09 -4.70006e-09 -5.05273e-10 -4.67722e-09 -2.70901e-09 7.73091 5.47488 0.417314 -5.05273e-10 -4.67722e-09 -2.709e-09 2.90554 0.965183 0.102902 -5.05269e-10 -4.67722e-09 -2.709e-09 10.2786 0.731801 0.0259123 -5.05281e-10 -4.67722e-09 -2.709e-09 2.22167 -0.733487 -0.20892 3.28624e-13 -3.03534e-13 -1.10841e-12 -83.2747 21.3825 34.089 17.5205 -10.18 -32.9542 0.0178239 3.80765 -0.535928 -2.41733e-09 -1.04634e-08 -6.322e-09 -4.18969e-09 -1.81112e-08 -1.09367e-08 -2.41734e-09 -1.04634e-08 -6.32201e-09 -7.73091 5.47488 -0.417314 -2.41733e-09 -1.04634e-08 -6.322e-09 -2.90554 0.965183 -0.102902 -2.41734e-09 -1.04634e-08 -6.32201e-09 -10.2786 0.731801 -0.0259123 -2.41732e-09 -1.04634e-08 -6.32202e-09 -2.22167 -0.733487 0.20892 -2.03217e-16 0.0 -3.88251e-19 2.08496 -4.03874 11.4076 -0.0339115 17.1616 0.437489 -4.02314 -16.9418 -9.30078 2.03217e-16 0.0 3.88251e-19 8.246 -34.5471 -4.16589 0.447792 44.5403 -0.751617 -0.146383 -20.7164 -1.46689
